<svg xmlns="http://www.w3.org/2000/svg" xmlns:xlink="http://www.w3.org/1999/xlink" viewBox="0,0,256,256" width="96px" height="96px" fill-rule="nonzero"><g transform="translate(26.66667,26.66667) scale(0.79167,0.79167)"><g fill="none" fill-rule="nonzero" stroke="none" stroke-width="none" stroke-linecap="butt" stroke-linejoin="none" stroke-miterlimit="10" stroke-dasharray="" stroke-dashoffset="0" font-family="none" font-weight="none" font-size="none" text-anchor="none" style="mix-blend-mode: normal"><path transform="scale(5.33333,5.33333)" d="M24.68555,3.17188l17.5,8.99414c0.49998,0.25694 0.81435,0.77185 0.81445,1.33398v22c-0.00011,0.56214 -0.31448,1.07704 -0.81445,1.33398l-17.5,8.99023c-0.4303,0.22107 -0.9408,0.22107 -1.37109,0l-17.5,-8.99023c-0.49998,-0.25694 -0.81435,-0.77185 -0.81445,-1.33398v-22c0.00011,-0.56214 0.31448,-1.07704 0.81445,-1.33398l17.5,-8.99414c0.20088,-0.10347 0.42255,-0.16022 0.64844,-0.16602c0.25098,-0.006 0.49946,0.05108 0.72266,0.16602z" id="strokeMainSVG" fill="#000000" stroke="#000000" stroke-width="3" stroke-linejoin="round"></path><g transform="scale(5.33333,5.33333)" fill="#00ff88" stroke="none" stroke-width="1" stroke-linejoin="miter"><path d="M23.96289,3.00586c-0.22589,0.0058 -0.44755,0.06255 -0.64844,0.16602l-17.5,8.99414c-0.49998,0.25694 -0.81435,0.77185 -0.81445,1.33398v22c0.00011,0.56214 0.31448,1.07704 0.81445,1.33398l17.5,8.99023c0.4303,0.22107 0.9408,0.22107 1.37109,0l17.5,-8.99023c0.49998,-0.25694 0.81435,-0.77185 0.81445,-1.33398v-22c-0.00011,-0.56214 -0.31448,-1.07704 -0.81445,-1.33398l-17.5,-8.99414c-0.2232,-0.11494 -0.47167,-0.17202 -0.72266,-0.16602zM24,6.19336l16,8.22266v4.79492l-2.7207,1.26953c-0.176,0.082 -0.28906,0.26008 -0.28906,0.45508l0.00195,1.93164c0,0.19 -0.10639,0.36422 -0.27539,0.44922l-1.21094,0.60547c-0.332,0.166 -0.72461,-0.07527 -0.72461,-0.44727v-2.49609c0,-0.174 -0.08928,-0.33478 -0.23828,-0.42578c-0.147,-0.09 -0.33328,-0.09948 -0.48828,-0.02148l-1.77148,0.90039c-0.168,0.085 -0.27148,0.25926 -0.27148,0.44727v4.95898c0,0.19 -0.10734,0.36227 -0.27734,0.44727l-1.04102,0.51953c-0.332,0.165 -0.72066,-0.07727 -0.72266,-0.44727l-0.00977,-2.4043c0,-0.172 -0.08933,-0.33188 -0.23633,-0.42187c-0.146,-0.091 -0.33138,-0.10044 -0.48437,-0.02344l-1.95898,0.9707c-0.169,0.084 -0.27634,0.25631 -0.27734,0.44531l-0.01172,1.96484c-0.001,0.184 -0.10458,0.3515 -0.26758,0.4375l-1.49023,0.78711c-0.334,0.175 -0.73437,-0.06736 -0.73437,-0.44336v-1.51367c0,-0.186 -0.10358,-0.35441 -0.26758,-0.44141l-3.48633,-1.83984c-0.155,-0.082 -0.34023,-0.07733 -0.49023,0.01367c-0.15,0.09 -0.24314,0.25078 -0.24414,0.42578l-0.00781,1.58398c-0.002,0.368 -0.38775,0.60827 -0.71875,0.44727l-0.99805,-0.48437c-0.171,-0.083 -0.27925,-0.25727 -0.28125,-0.44727l-0.00977,-1.28516c-0.001,-0.186 -0.10548,-0.35641 -0.27148,-0.44141l-1.73633,-0.89062v-1.30859c0,-0.19 -0.10734,-0.36522 -0.27734,-0.44922l-3.00586,-1.49023c-0.154,-0.077 -0.33638,-0.06951 -0.48437,0.02148c-0.147,0.091 -0.23633,0.25278 -0.23633,0.42578v1.90039c0,0.37 -0.3887,0.61222 -0.7207,0.44922l-1.14844,-0.56445c-0.171,-0.084 -0.2793,-0.26017 -0.2793,-0.45117v-0.64453c0,-0.193 -0.11116,-0.37012 -0.28516,-0.45312l-1.55078,-0.73633v-6.08008zM37.54297,26.00781c0.08237,0.00587 0.16383,0.03213 0.23633,0.07813c0.143,0.092 0.23047,0.24892 0.23047,0.41992v1.94531h-0.00195c0,0.188 -0.10548,0.35931 -0.27148,0.44531l-2.00781,1.03125c-0.072,0.037 -0.14952,0.05469 -0.22852,0.05469c-0.09,0 -0.18077,-0.02427 -0.25977,-0.07227c-0.148,-0.09 -0.23823,-0.24983 -0.24023,-0.42383l-0.01562,-2.04883c-0.001,-0.197 0.11397,-0.37698 0.29297,-0.45898l2.02344,-0.92773c0.077,-0.0355 0.15981,-0.04884 0.24219,-0.04297zM13.45898,28.02148c0.0825,-0.00575 0.16714,0.00797 0.24414,0.04297l2.02344,0.92773c0.179,0.082 0.29202,0.26298 0.29102,0.45898l-0.01562,2.05078c-0.001,0.173 -0.09123,0.33383 -0.24023,0.42383c-0.079,0.048 -0.16977,0.07227 -0.25977,0.07227c-0.078,0 -0.15652,-0.01869 -0.22851,-0.05469l-2.00781,-1.03125c-0.167,-0.086 -0.27148,-0.25731 -0.27148,-0.44531v-1.94727c0,-0.17 0.08747,-0.32792 0.23047,-0.41992c0.072,-0.046 0.15188,-0.07238 0.23438,-0.07812zM32.54688,30.01953c0.08225,0.00575 0.16188,0.03358 0.23438,0.08008c0.143,0.092 0.23047,0.24892 0.23047,0.41992v1.94727c0,0.188 -0.10549,0.35736 -0.27148,0.44336l-2.00781,1.03125c-0.072,0.037 -0.14952,0.05469 -0.22852,0.05469c-0.09,0 -0.18077,-0.02231 -0.25977,-0.07031c-0.149,-0.09 -0.23924,-0.24983 -0.24023,-0.42383l-0.01562,-2.05078c-0.001,-0.197 0.11202,-0.37699 0.29102,-0.45898l2.02344,-0.92773c0.0775,-0.0355 0.16189,-0.05067 0.24414,-0.04492z"></path></g></g></g></svg>