<svg width="48" height="37" viewBox="0 0 48 37" fill="none" xmlns="http://www.w3.org/2000/svg">
<path d="M46.3883 6.94999C45.95 4.53085 43.8617 2.76914 41.4383 2.21914C37.8117 1.44999 31.1 0.899994 23.8383 0.899994C16.5808 0.899994 9.76172 1.44999 6.13085 2.21914C3.7117 2.76914 1.61913 4.41914 1.18085 6.94999C0.738272 9.69999 0.299988 13.55 0.299988 18.5C0.299988 23.45 0.738272 27.3 1.28827 30.05C1.73085 32.4691 3.81913 34.2309 6.23827 34.7809C10.0883 35.55 16.6883 36.1 23.95 36.1C31.2117 36.1 37.8117 35.55 41.6617 34.7809C44.0808 34.2309 46.1691 32.5809 46.6117 30.05C47.05 27.3 47.6 23.3383 47.7117 18.5C47.4883 13.55 46.9383 9.69999 46.3883 6.94999ZM17.9 26.2V10.8L31.3191 18.5L17.9 26.2Z" fill="white"/>
</svg>
